<?xml version="1.0" standalone="no"?><!DOCTYPE svg PUBLIC "-//W3C//DTD SVG 1.1//EN" "http://www.w3.org/Graphics/SVG/1.1/DTD/svg11.dtd"><svg t="1647582672239" class="icon" viewBox="0 0 1209 1024" version="1.1" xmlns="http://www.w3.org/2000/svg" p-id="2252" width="56.671875" height="48" xmlns:xlink="http://www.w3.org/1999/xlink"><defs><style type="text/css"></style></defs><path d="M1129.038991 761.436268c-21.564137 82.698681-67.893525 168.825061-151.864938 184.136418a2249.482218 2249.482218 0 0 1-746.539513 0c-83.971413-15.311357-136.891048-102.802068-151.864938-184.136418-30.632355-166.289239-30.632355-363.215653 0-498.872536C96.987995 181.894673 146.663126 93.73867 230.63454 78.427314a2249.74255 2249.74255 0 0 1 746.539513 0c83.971413 15.306536 128.295284 104.860616 151.864938 184.136418 39.387211 132.465411 25.223242 353.424291 0 498.872536z" fill="#4EC48F" p-id="2253"></path><path d="M474.719547 328.201049c0-36.10414 23.762493-48.093858 52.803932-26.645424l220.500889 162.832613c29.04144 21.448434 29.566924 57.224749 1.15703 79.512028l-222.824591 174.827152c-28.405073 22.28728-51.642082 10.977317-51.642081-25.117181V328.201049h0.004821z" fill="#D3FFAD" p-id="2254"></path><path d="M499.378737 754.267507c-24.273514 0-48.763971-18.75834-48.763971-60.65727V328.201049c0-42.414772 25.155749-61.399697 50.089734-61.399697 13.493856 0 27.334821 5.168065 41.142039 15.364387l220.505711 162.832613c19.949116 14.732842 31.577262 36.046289 31.905087 58.478198 0.323004 22.43673-10.678418 44.082823-30.193648 59.389358l-222.819769 174.827152c-14.01934 10.996601-28.101353 16.574447-41.865183 16.574447z m1.812679-439.222847c-0.887056 1.51378-2.367089 5.616414-2.367089 13.156389v365.409188c0 6.845758 1.132925 10.543431 1.884994 12.235587 2.06819-0.535126 5.809252-2.188714 10.770016-6.084047l222.82459-174.827152c7.679783-6.026195 11.845089-13.397437 11.743849-20.759037-0.106061-7.356779-4.493131-14.602676-12.341647-20.402286l-220.505711-162.832613c-6.590247-4.864345-10.635029-5.741759-12.009002-5.896029z" fill="#6E6E96" p-id="2255"></path><path d="M1124.218035 257.737955c-23.569654-79.275802-67.893525-168.825061-151.864938-184.136418-9.323729-1.566811-18.666742-2.960067-28.004934-4.411175 1.354689 4.213516 0.356751 10.070977 3.904975 12.582695 107.179496 75.88667 160.210013 365.144035 87.895671 556.31905-21.564137 82.69386-81.956254 180.038605-185.61163 203.420242-235.648334 53.160683-739.245407 53.141399-773.99968-72.521643 17.847179 77.627035 69.547113 157.22102 149.276084 171.765845a2249.99806 2249.99806 0 0 0 746.539514 0c83.971413-15.316178 130.300801-101.437737 151.864938-184.136418 25.223242-145.453066 39.38239-366.411947 0-498.882178z" fill="#006837" opacity=".2" p-id="2256"></path><path d="M226.078736 852.619832S57.914146 622.568628 144.271932 350.497971c86.357787-272.070657 734.303927-294.030112 877.423651-167.022024 0 0-24.114422-145.409678-323.0137-136.235398-298.899278 9.174279-511.021346 13.995236-549.588995 71.846708S17.808612 605.873657 119.607921 814.934418c0 0 53.994708 28.578628 106.470815 37.685414z" fill="#95DCBC" opacity=".7" p-id="2257"></path><path d="M603.901886 1000.85459a2279.887988 2279.887988 0 0 1-377.26874-31.51459c-95.946668-17.49525-155.234786-114.81589-171.573006-203.545587-31.288005-169.842283-31.215691-369.468433 0.192838-508.548196 19.510409-86.396354 74.695894-184.975264 171.052343-202.538007A2281.623532 2281.623532 0 0 1 603.901886 23.140589c126.048718 0 252.979671 10.606103 377.26874 31.519411 78.123593 14.241104 135.53636 81.855014 170.970387 201.033869 18.522113 62.281932 27.238402 149.396608 25.223242 251.91424-1.668051 84.535465-10.393981 176.148094-24.582055 257.950077l-0.433886 1.962129c-40.64066 155.851869-124.486728 193.320339-170.854684 201.776296a2282.033314 2282.033314 0 0 1-377.591744 31.557979z m0-929.50444a2232.054462 2232.054462 0 0 0-369.270774 30.849298c-72.916961 13.296197-116.233251 94.307543-132.354528 165.672156-30.082766 133.227122-30.005631 325.250624 0.197659 489.196878 18.512471 100.526576 79.878422 155.191398 132.475052 164.799563 121.329002 20.407107 245.569861 30.791447 368.942949 30.791447s247.613947-10.374698 369.265953-30.844477c80.924569-14.761768 117.578298-109.565869 132.287035-165.484139 26.597215-153.971696 37.029764-363.933975 0.472454-486.892461-37.15993-124.988108-92.88054-159.959323-133.077672-167.287176a2230.17911 2230.17911 0 0 0-368.938128-30.801089z" fill="#6E6E96" p-id="2258"></path></svg>